<?xml version="1.0" standalone="no"?>
<!DOCTYPE svg PUBLIC "-//W3C//DTD SVG 20010904//EN"
 "http://www.w3.org/TR/2001/REC-SVG-20010904/DTD/svg10.dtd">
<svg version="1.0" xmlns="http://www.w3.org/2000/svg"
 width="1364.000000pt" height="1418.000000pt" viewBox="0 0 1364.000000 1418.000000"
 preserveAspectRatio="xMidYMid meet">

<g transform="translate(0.000000,1418.000000) scale(0.100000,-0.100000)"
fill="#000000" stroke="none">
<path d="M5785 12919 c-817 -473 -957 -554 -1140 -659 -199 -115 -368 -212
-1575 -910 -564 -326 -1120 -647 -1237 -714 -117 -66 -212 -123 -212 -126 -1
-5 368 -221 389 -228 5 -2 244 133 532 299 288 166 885 511 1328 767 443 256
848 490 900 520 120 69 642 371 816 471 72 42 291 168 487 281 l356 205 1 233
c0 127 -1 232 -2 232 -2 -1 -291 -167 -643 -371z"/>
<path d="M7060 13058 l1 -233 746 -430 c410 -236 807 -465 882 -509 75 -43
258 -149 406 -234 149 -86 306 -177 350 -202 44 -26 157 -91 250 -145 94 -54
229 -132 300 -173 1068 -617 1459 -842 1467 -842 7 0 385 214 396 225 3 3
-128 79 -693 405 -165 95 -336 194 -380 220 -44 26 -145 84 -225 130 -80 46
-197 114 -260 150 -63 37 -290 168 -505 292 -382 221 -888 513 -1455 840 -157
91 -328 190 -380 220 -112 64 -882 509 -892 515 -5 2 -8 -101 -8 -229z"/>
<path d="M11998 9873 l-198 -116 0 -2572 0 -2572 200 -116 200 -115 0 2804 c0
1542 -1 2804 -2 2803 -2 0 -92 -53 -200 -116z"/>
<path d="M1290 7185 c0 -1708 4 -2785 9 -2783 5 2 95 53 200 113 l191 110 -1
2560 0 2560 -191 110 c-105 61 -195 112 -200 113 -4 2 -8 -1250 -8 -2783z"/>
<path d="M4326 9960 c-555 -70 -963 -458 -1088 -1033 -19 -87 -22 -133 -22
-312 -1 -182 2 -224 22 -315 150 -683 714 -1085 1446 -1030 157 12 231 22 356
50 90 20 210 57 222 68 5 6 58 384 58 419 0 29 -35 19 -93 -27 -268 -216 -743
-272 -1063 -125 -363 166 -579 573 -550 1035 19 294 118 534 295 711 108 108
225 176 387 226 85 26 98 27 294 27 190 0 212 -2 305 -27 116 -31 248 -92 322
-148 29 -21 61 -39 73 -39 20 0 20 5 20 235 0 217 -1 235 -17 235 -10 -1 -29
-7 -43 -15 -37 -21 -105 -18 -237 10 -65 13 -161 31 -213 40 -115 19 -379 27
-474 15z"/>
<path d="M6330 9931 c0 -25 5 -30 33 -36 84 -19 158 -83 177 -155 8 -28 10
-365 8 -1113 l-3 -1073 -25 -48 c-30 -59 -60 -82 -131 -105 -46 -15 -54 -22
-57 -44 l-3 -27 411 0 411 0 -3 27 c-3 24 -9 29 -45 35 -55 9 -95 31 -126 67
-54 64 -52 22 -52 1201 0 1011 1 1097 17 1126 35 65 115 114 186 114 18 0 22
6 22 30 l0 30 -410 0 -410 0 0 -29z"/>
<path d="M7804 9907 c-10 -26 3 -47 28 -47 44 0 137 -33 170 -60 40 -33 63
-84 159 -347 11 -32 27 -71 35 -86 8 -16 14 -36 14 -45 0 -10 9 -34 20 -55 11
-20 20 -42 20 -49 0 -14 35 -110 56 -151 8 -16 14 -36 14 -45 0 -9 7 -30 15
-45 8 -15 19 -42 24 -60 6 -18 21 -61 34 -97 31 -80 92 -248 116 -315 40 -112
153 -423 170 -470 11 -27 60 -165 111 -305 92 -257 121 -336 145 -400 7 -19
16 -43 19 -52 4 -15 17 -18 64 -18 36 0 64 5 70 13 10 12 70 171 157 412 42
119 308 850 347 955 11 30 29 80 40 110 40 108 46 126 67 180 11 30 48 132 82
225 190 520 215 579 261 622 35 33 91 53 148 53 50 0 51 1 48 28 l-3 27 -445
6 c-245 4 -449 3 -454 -2 -5 -5 -4 -14 4 -24 9 -11 31 -15 80 -15 53 0 74 -5
101 -23 46 -31 79 -83 79 -124 0 -29 -52 -182 -124 -365 -20 -51 -204 -537
-333 -878 -13 -36 -39 -107 -58 -159 -18 -51 -38 -98 -43 -103 -11 -11 -52 6
-52 23 0 5 -15 49 -34 97 -19 48 -143 373 -276 722 -212 556 -242 640 -237
677 9 84 55 118 176 133 68 9 87 20 78 44 -6 14 -34 16 -205 16 -109 0 -307 3
-440 7 -219 6 -242 5 -248 -10z"/>
<path d="M3166 6735 c-9 -24 11 -45 42 -45 51 0 137 -35 172 -70 31 -31 70
-112 95 -200 4 -14 14 -34 21 -45 8 -11 14 -26 14 -35 0 -9 16 -54 35 -100 19
-46 35 -89 35 -94 0 -13 37 -111 56 -149 8 -16 14 -36 14 -45 0 -10 9 -34 20
-55 11 -20 20 -42 20 -49 0 -10 34 -104 60 -163 4 -11 27 -74 50 -140 23 -66
53 -147 65 -180 13 -33 55 -150 95 -260 39 -110 80 -225 92 -255 11 -30 26
-71 33 -90 7 -19 22 -60 33 -90 11 -30 46 -127 77 -215 31 -88 67 -187 80
-220 12 -33 29 -76 36 -97 12 -34 15 -36 63 -40 28 -2 59 -2 68 0 18 4 26 25
309 802 194 533 234 645 266 730 13 36 28 76 32 90 8 23 43 118 220 598 106
287 140 330 269 341 60 5 67 8 70 29 2 12 -3 24 -10 26 -7 2 -210 7 -451 10
-390 4 -439 3 -444 -11 -9 -23 16 -33 85 -33 73 0 110 -16 146 -62 33 -44 40
-77 26 -128 -9 -35 -140 -385 -207 -555 -73 -187 -321 -852 -327 -878 -6 -23
-11 -28 -33 -25 -26 3 -33 19 -143 308 -64 168 -189 495 -278 728 -184 480
-187 495 -129 558 28 31 42 37 122 52 79 16 90 21 93 40 2 12 2 22 0 22 -2 0
-201 3 -444 7 -416 6 -441 5 -448 -12z"/>
<path d="M6330 6701 c0 -25 5 -30 33 -36 84 -19 158 -83 177 -155 8 -28 10
-365 8 -1113 l-3 -1073 -25 -48 c-30 -59 -60 -82 -131 -105 -46 -15 -54 -22
-57 -44 l-3 -27 411 0 411 0 -3 27 c-3 24 -9 29 -45 35 -55 9 -95 31 -126 67
-54 64 -52 22 -52 1201 0 1208 -5 1119 62 1182 30 29 100 58 139 58 20 0 24 5
24 30 l0 30 -410 0 -410 0 0 -29z"/>
<path d="M8650 6701 c0 -25 5 -30 33 -36 84 -19 158 -83 177 -155 7 -28 10
-367 8 -1113 l-3 -1073 -25 -48 c-30 -59 -60 -82 -131 -105 -46 -15 -54 -22
-57 -44 l-3 -27 411 0 411 0 -3 27 c-3 24 -9 29 -45 35 -55 9 -95 31 -126 67
-54 64 -52 22 -52 1201 0 1208 -5 1119 62 1182 30 29 100 58 139 58 20 0 24 5
24 30 l0 30 -410 0 -410 0 0 -29z"/>
<path d="M1804 3969 c-104 -61 -192 -113 -196 -117 -4 -4 167 -108 380 -231
213 -123 439 -254 502 -291 116 -67 624 -361 800 -462 52 -30 475 -275 940
-543 465 -269 870 -503 900 -520 30 -17 333 -192 672 -388 340 -196 620 -357
623 -357 3 0 4 104 3 231 l-3 230 -100 58 c-55 32 -581 336 -1170 676 -1064
614 -1143 660 -1387 801 -71 41 -188 109 -260 151 -73 42 -216 125 -318 183
-102 59 -403 233 -670 387 -267 154 -494 285 -506 291 -17 9 -47 -5 -210 -99z"/>
<path d="M11185 3902 c-286 -166 -507 -294 -757 -438 -71 -41 -188 -108 -260
-151 -73 -42 -176 -101 -228 -131 -52 -30 -151 -87 -220 -127 -69 -40 -471
-272 -895 -517 -423 -245 -844 -488 -935 -540 -91 -53 -219 -127 -285 -165
-66 -38 -216 -125 -332 -192 l-213 -123 0 -229 c0 -126 2 -229 5 -229 5 0 538
306 1425 820 206 119 434 251 505 292 72 41 510 294 975 563 465 268 904 522
975 563 72 41 182 105 245 142 63 36 239 137 390 225 151 87 280 163 287 169
9 8 -36 39 -182 124 -108 61 -198 112 -203 112 -4 0 -137 -76 -297 -168z"/>
</g>
</svg>
