<?xml version="1.0" encoding="UTF-8" standalone="no"?>
<!DOCTYPE svg PUBLIC "-//W3C//DTD SVG 1.1//EN"
 "http://www.w3.org/Graphics/SVG/1.1/DTD/svg11.dtd">
<!-- Generated by graphviz version 13.1.1 (0)
 -->
<!-- Title: G Pages: 1 -->
<svg width="1458pt" height="162pt"
 viewBox="0.00 0.00 1458.00 162.00" xmlns="http://www.w3.org/2000/svg" xmlns:xlink="http://www.w3.org/1999/xlink">
<g id="graph0" class="graph" transform="scale(1 1) rotate(0) translate(4 157.66)">
<title>G</title>
<polygon fill="white" stroke="none" points="-4,4 -4,-157.66 1454.17,-157.66 1454.17,4 -4,4"/>
<!-- Civilizations_CIVILIZATION_ROME -->
<g id="node1" class="node">
<title>Civilizations_CIVILIZATION_ROME</title>
<ellipse fill="none" stroke="black" cx="582.84" cy="-124.25" rx="111.39" ry="29.42"/>
<text xml:space="preserve" text-anchor="middle" x="582.84" y="-128.45" font-family="Times,serif" font-size="14.00">Civilizations</text>
<text xml:space="preserve" text-anchor="middle" x="582.84" y="-111.65" font-family="Times,serif" font-size="14.00">CIVILIZATION_ROME</text>
</g>
<!-- Civilizations_CIVILIZATION_ROME&#45;&gt;Civilizations_CIVILIZATION_ROME -->
<g id="edge6" class="edge">
<title>Civilizations_CIVILIZATION_ROME&#45;&gt;Civilizations_CIVILIZATION_ROME</title>
<path fill="none" stroke="black" d="M673.53,-141.75C695.72,-140.45 712.23,-134.62 712.23,-124.25 712.23,-115.74 701.12,-110.28 684.88,-107.88"/>
<polygon fill="black" stroke="black" points="685.34,-104.41 675.04,-106.89 684.64,-111.38 685.34,-104.41"/>
</g>
<!-- Traits_TRAIT_ANTIQUITY_CIV -->
<g id="node2" class="node">
<title>Traits_TRAIT_ANTIQUITY_CIV</title>
<ellipse fill="none" stroke="black" cx="121.84" cy="-29.42" rx="121.84" ry="29.42"/>
<text xml:space="preserve" text-anchor="middle" x="121.84" y="-33.62" font-family="Times,serif" font-size="14.00">Traits</text>
<text xml:space="preserve" text-anchor="middle" x="121.84" y="-16.82" font-family="Times,serif" font-size="14.00">TRAIT_ANTIQUITY_CIV</text>
</g>
<!-- Civilizations_CIVILIZATION_ROME&#45;&gt;Traits_TRAIT_ANTIQUITY_CIV -->
<g id="edge1" class="edge">
<title>Civilizations_CIVILIZATION_ROME&#45;&gt;Traits_TRAIT_ANTIQUITY_CIV</title>
<path fill="none" stroke="black" d="M495.31,-105.62C418.5,-90.15 306.67,-67.63 225.41,-51.27"/>
<polygon fill="black" stroke="black" points="226.13,-47.85 215.64,-49.3 224.75,-54.71 226.13,-47.85"/>
</g>
<!-- Traits_TRAIT_ROME -->
<g id="node3" class="node">
<title>Traits_TRAIT_ROME</title>
<ellipse fill="none" stroke="black" cx="353.84" cy="-29.42" rx="74.01" ry="29.42"/>
<text xml:space="preserve" text-anchor="middle" x="353.84" y="-33.62" font-family="Times,serif" font-size="14.00">Traits</text>
<text xml:space="preserve" text-anchor="middle" x="353.84" y="-16.82" font-family="Times,serif" font-size="14.00">TRAIT_ROME</text>
</g>
<!-- Civilizations_CIVILIZATION_ROME&#45;&gt;Traits_TRAIT_ROME -->
<g id="edge2" class="edge">
<title>Civilizations_CIVILIZATION_ROME&#45;&gt;Traits_TRAIT_ROME</title>
<path fill="none" stroke="black" d="M522.97,-98.98C489.85,-85.55 448.75,-68.89 415.37,-55.36"/>
<polygon fill="black" stroke="black" points="416.81,-52.17 406.22,-51.65 414.18,-58.65 416.81,-52.17"/>
</g>
<!-- Traits_TRAIT_ROME_ABILITY -->
<g id="node4" class="node">
<title>Traits_TRAIT_ROME_ABILITY</title>
<ellipse fill="none" stroke="black" cx="582.84" cy="-29.42" rx="118.55" ry="29.42"/>
<text xml:space="preserve" text-anchor="middle" x="582.84" y="-33.62" font-family="Times,serif" font-size="14.00">Traits</text>
<text xml:space="preserve" text-anchor="middle" x="582.84" y="-16.82" font-family="Times,serif" font-size="14.00">TRAIT_ROME_ABILITY</text>
</g>
<!-- Civilizations_CIVILIZATION_ROME&#45;&gt;Traits_TRAIT_ROME_ABILITY -->
<g id="edge3" class="edge">
<title>Civilizations_CIVILIZATION_ROME&#45;&gt;Traits_TRAIT_ROME_ABILITY</title>
<path fill="none" stroke="black" d="M582.84,-94.38C582.84,-86.87 582.84,-78.65 582.84,-70.66"/>
<polygon fill="black" stroke="black" points="586.34,-70.77 582.84,-60.77 579.34,-70.77 586.34,-70.77"/>
</g>
<!-- Traits_TRAIT_ATTRIBUTE_CULTURAL -->
<g id="node5" class="node">
<title>Traits_TRAIT_ATTRIBUTE_CULTURAL</title>
<ellipse fill="none" stroke="black" cx="895.84" cy="-29.42" rx="158.14" ry="29.42"/>
<text xml:space="preserve" text-anchor="middle" x="895.84" y="-33.62" font-family="Times,serif" font-size="14.00">Traits</text>
<text xml:space="preserve" text-anchor="middle" x="895.84" y="-16.82" font-family="Times,serif" font-size="14.00">TRAIT_ATTRIBUTE_CULTURAL</text>
</g>
<!-- Civilizations_CIVILIZATION_ROME&#45;&gt;Traits_TRAIT_ATTRIBUTE_CULTURAL -->
<g id="edge4" class="edge">
<title>Civilizations_CIVILIZATION_ROME&#45;&gt;Traits_TRAIT_ATTRIBUTE_CULTURAL</title>
<path fill="none" stroke="black" d="M655.83,-101.6C699.57,-88.63 755.62,-72 802.55,-58.08"/>
<polygon fill="black" stroke="black" points="803.3,-61.51 811.89,-55.31 801.31,-54.8 803.3,-61.51"/>
</g>
<!-- Traits_TRAIT_ATTRIBUTE_MILITARISTIC -->
<g id="node6" class="node">
<title>Traits_TRAIT_ATTRIBUTE_MILITARISTIC</title>
<ellipse fill="none" stroke="black" cx="1260.84" cy="-29.42" rx="171.33" ry="29.42"/>
<text xml:space="preserve" text-anchor="middle" x="1260.84" y="-33.62" font-family="Times,serif" font-size="14.00">Traits</text>
<text xml:space="preserve" text-anchor="middle" x="1260.84" y="-16.82" font-family="Times,serif" font-size="14.00">TRAIT_ATTRIBUTE_MILITARISTIC</text>
</g>
<!-- Civilizations_CIVILIZATION_ROME&#45;&gt;Traits_TRAIT_ATTRIBUTE_MILITARISTIC -->
<g id="edge5" class="edge">
<title>Civilizations_CIVILIZATION_ROME&#45;&gt;Traits_TRAIT_ATTRIBUTE_MILITARISTIC</title>
<path fill="none" stroke="black" d="M683.1,-111.11C783.75,-98.74 943.2,-78.59 1080.84,-58.83 1095.7,-56.7 1111.25,-54.38 1126.71,-52.01"/>
<polygon fill="black" stroke="black" points="1127.09,-55.5 1136.44,-50.52 1126.02,-48.58 1127.09,-55.5"/>
</g>
<!-- Traits_TRAIT_ANTIQUITY_CIV&#45;&gt;Traits_TRAIT_ANTIQUITY_CIV -->
<g id="edge7" class="edge">
<title>Traits_TRAIT_ANTIQUITY_CIV&#45;&gt;Traits_TRAIT_ANTIQUITY_CIV</title>
<path fill="none" stroke="black" d="M221.13,-46.84C244.46,-45.41 261.67,-39.6 261.67,-29.42 261.67,-20.98 249.87,-15.55 232.56,-13.11"/>
<polygon fill="black" stroke="black" points="232.93,-9.63 222.64,-12.13 232.25,-16.6 232.93,-9.63"/>
</g>
<!-- Traits_TRAIT_ROME&#45;&gt;Traits_TRAIT_ROME -->
<g id="edge8" class="edge">
<title>Traits_TRAIT_ROME&#45;&gt;Traits_TRAIT_ROME</title>
<path fill="none" stroke="black" d="M413.57,-47.17C431.68,-46.72 445.84,-40.81 445.84,-29.42 445.84,-20.52 437.2,-14.96 424.78,-12.74"/>
<polygon fill="black" stroke="black" points="425.37,-9.28 415.08,-11.81 424.7,-16.25 425.37,-9.28"/>
</g>
<!-- Traits_TRAIT_ROME_ABILITY&#45;&gt;Traits_TRAIT_ROME_ABILITY -->
<g id="edge9" class="edge">
<title>Traits_TRAIT_ROME_ABILITY&#45;&gt;Traits_TRAIT_ROME_ABILITY</title>
<path fill="none" stroke="black" d="M679.48,-46.86C702.42,-45.47 719.38,-39.65 719.38,-29.42 719.38,-20.94 707.75,-15.5 690.73,-13.08"/>
<polygon fill="black" stroke="black" points="691.29,-9.62 680.99,-12.12 690.6,-16.58 691.29,-9.62"/>
</g>
<!-- Traits_TRAIT_ATTRIBUTE_CULTURAL&#45;&gt;Traits_TRAIT_ATTRIBUTE_CULTURAL -->
<g id="edge10" class="edge">
<title>Traits_TRAIT_ATTRIBUTE_CULTURAL&#45;&gt;Traits_TRAIT_ATTRIBUTE_CULTURAL</title>
<path fill="none" stroke="black" d="M1025.65,-46.57C1052.6,-44.77 1071.98,-39.05 1071.98,-29.42 1071.98,-21.21 1057.92,-15.85 1037.11,-13.32"/>
<polygon fill="black" stroke="black" points="1037.43,-9.84 1027.15,-12.4 1036.79,-16.81 1037.43,-9.84"/>
</g>
<!-- Traits_TRAIT_ATTRIBUTE_MILITARISTIC&#45;&gt;Traits_TRAIT_ATTRIBUTE_MILITARISTIC -->
<g id="edge11" class="edge">
<title>Traits_TRAIT_ATTRIBUTE_MILITARISTIC&#45;&gt;Traits_TRAIT_ATTRIBUTE_MILITARISTIC</title>
<path fill="none" stroke="black" d="M1402.03,-46.46C1430.13,-44.54 1450.17,-38.86 1450.17,-29.42 1450.17,-21.3 1435.37,-15.96 1413.38,-13.4"/>
<polygon fill="black" stroke="black" points="1413.82,-9.93 1403.54,-12.51 1413.18,-16.9 1413.82,-9.93"/>
</g>
</g>
</svg>
